<?xml version="1.0" encoding="utf-8"?>
<!-- Generator: Adobe Illustrator 24.1.2, SVG Export Plug-In . SVG Version: 6.00 Build 0)  -->
<svg version="1.1" id="Lager_1" xmlns="http://www.w3.org/2000/svg" xmlns:xlink="http://www.w3.org/1999/xlink" x="0px" y="0px"
	 viewBox="0 0 100 100" style="enable-background:new 0 0 100 100;" xml:space="preserve">
<style type="text/css">
	.st0{fill:#21759B;}
	.st1{fill:#FFFFFF;}
</style>
<g>
	<g>
		<g>
			<circle class="st0" cx="50" cy="50" r="50"/>
		</g>
	</g>
	<path class="st1" d="M22.5,50c0,10.9,6.3,20.3,15.5,24.7L24.9,38.8C23.4,42.2,22.5,46,22.5,50z M68.5,48.6c0-3.4-1.2-5.7-2.3-7.6
		c-1.4-2.3-2.7-4.2-2.7-6.4c0-2.5,1.9-4.9,4.6-4.9c0.1,0,0.2,0,0.4,0c-4.9-4.5-11.4-7.2-18.5-7.2c-9.6,0-18,4.9-22.9,12.4
		c0.6,0,1.3,0,1.8,0c2.9,0,7.3-0.4,7.3-0.4c1.5-0.1,1.7,2.1,0.2,2.3c0,0-1.5,0.2-3.1,0.3l10,29.7l6-18L45,37.1c-1.6-0.1-3-0.2-3-0.2
		c-1.5-0.1-1.3-2.4,0.2-2.3c0,0,4.5,0.4,7.2,0.4c2.9,0,7.3-0.4,7.3-0.4c1.5-0.1,1.7,2.1,0.2,2.3c0,0-1.5,0.2-3.1,0.3l9.9,29.5
		l2.7-9.1C67.8,53.9,68.5,51,68.5,48.6z M50.5,52.4l-8.2,23.9c2.5,0.7,5.1,1.1,7.8,1.1c3.2,0,6.3-0.6,9.1-1.6
		c-0.1-0.1-0.1-0.2-0.2-0.4L50.5,52.4z M74.1,36.8c0.1,0.9,0.2,1.8,0.2,2.8c0,2.8-0.5,5.9-2.1,9.8l-8.4,24.2
		C72,69,77.5,60.1,77.5,50C77.5,45.2,76.2,40.7,74.1,36.8z M18,50c0,17.6,14.4,32,32,32s32-14.4,32-32S67.6,18,50,18S18,32.4,18,50z
		 M19.5,50c0-16.8,13.7-30.5,30.5-30.5S80.5,33.2,80.5,50S66.8,80.5,50,80.5S19.5,66.8,19.5,50z"/>
</g>
</svg>
