<?xml version="1.0" encoding="utf-8"?>
<!-- Generator: Adobe Illustrator 24.1.2, SVG Export Plug-In . SVG Version: 6.00 Build 0)  -->
<svg version="1.1" id="_x32_" xmlns="http://www.w3.org/2000/svg" xmlns:xlink="http://www.w3.org/1999/xlink" x="0px" y="0px"
	 viewBox="0 0 100 100" style="enable-background:new 0 0 100 100;" xml:space="preserve">
<style type="text/css">
	.st0{fill:#00ACEE;}
</style>
<g>
	<path class="st0" d="M50,0C22.39,0,0,22.39,0,50s22.39,50,50,50s50-22.39,50-50S77.61,0,50,0z M50.96,42.46c0.02,0,0.03,0,0.05,0
		c-0.17-0.73-0.26-1.5-0.26-2.28c0-5.53,4.48-10.01,10.01-10.01c2.88,0,5.48,1.22,7.31,3.16c1.88-0.37,3.65-1.01,5.3-1.86
		c0.35-0.17,0.7-0.34,1.04-0.52c-0.59,1.82-1.71,3.4-3.15,4.6c-0.39,0.31-0.79,0.61-1.24,0.85c0.03,0,0.06-0.01,0.09-0.01
		c-0.03,0.02-0.05,0.04-0.08,0.06c1.64-0.2,3.21-0.6,4.71-1.16c0.33-0.12,0.67-0.23,1-0.36c-1.34,1.98-3.02,3.73-4.96,5.13
		c0.02,0.43,0.03,0.86,0.03,1.3c0,13.23-10.07,28.48-28.49,28.48c-5.65,0-10.92-1.66-15.35-4.5c0.78,0.09,1.58,0.14,2.39,0.14
		c3.74,0,7.23-1.03,10.23-2.8c0.76-0.44,1.5-0.91,2.2-1.44c-0.02,0-0.04-0.01-0.06-0.01c0.02-0.01,0.04-0.03,0.06-0.04
		c-3.79-0.07-7.07-2.25-8.71-5.42c-0.24-0.49-0.45-1-0.62-1.53c0.6,0.11,1.22,0.18,1.86,0.18c0.66,0,1.3-0.09,1.93-0.21
		c0.23-0.03,0.47-0.06,0.7-0.1c-0.03-0.01-0.06-0.02-0.09-0.03c0.03-0.01,0.07-0.01,0.1-0.02c-4.58-0.92-8.03-4.97-8.03-9.82
		c0-0.04,0-0.08,0-0.11l0-0.01c1.08,0.6,2.28,0.99,3.56,1.16c0.31,0.05,0.63,0.1,0.94,0.13c-0.02-0.01-0.04-0.03-0.06-0.05
		c0.03,0,0.06,0.01,0.09,0.01c-2.69-1.8-4.45-4.86-4.45-8.33c0-1.59,0.39-3.08,1.05-4.42c0.11-0.2,0.2-0.41,0.32-0.6
		c4.44,5.43,10.84,9.17,18.13,10.19c0.81,0.12,1.63,0.22,2.45,0.27C50.96,42.47,50.96,42.46,50.96,42.46z"/>
</g>
</svg>
