<?xml version="1.0" encoding="utf-8"?>
<!-- Generator: Adobe Illustrator 24.1.2, SVG Export Plug-In . SVG Version: 6.00 Build 0)  -->
<svg version="1.1" id="レイヤー_1" xmlns="http://www.w3.org/2000/svg" xmlns:xlink="http://www.w3.org/1999/xlink" x="0px"
	 y="0px" viewBox="0 0 125 125" style="enable-background:new 0 0 125 125;" xml:space="preserve">
<style type="text/css">
	.st0{fill:#526C78;}
</style>
<g>
	<g>
		<path class="st0" d="M62.5,64.7c0.35,0,0.7,0.09,1,0.27l22.65,13.07c0.62,0.36,1,1.02,1,1.73v26.15c0,0.71-0.38,1.38-1,1.73
			L63.5,120.73c-0.3,0.18-0.65,0.27-1,0.27s-0.7-0.09-1-0.27l-22.65-13.07c-0.62-0.36-1-1.02-1-1.73V79.78c0-0.71,0.38-1.38,1-1.73
			L61.5,64.97C61.8,64.79,62.15,64.7,62.5,64.7 M62.5,60.7c-1.04,0-2.07,0.27-3,0.8L36.85,74.58c-1.86,1.07-3,3.05-3,5.2v26.15
			c0,2.14,1.14,4.12,3,5.2L59.5,124.2c0.93,0.54,1.96,0.8,3,0.8s2.07-0.27,3-0.8l22.65-13.07c1.86-1.07,3-3.05,3-5.2V79.78
			c0-2.14-1.14-4.12-3-5.2L65.5,61.5C64.57,60.97,63.54,60.7,62.5,60.7L62.5,60.7z"/>
	</g>
	<path class="st0" d="M62.5,125L62.5,125c-1.1,0-2-0.9-2-2V92.85h4V123C64.5,124.1,63.6,125,62.5,125z"/>
	<path class="st0" d="M63.5,94.58l-2-3.46l26.11-15.07c0.96-0.55,2.18-0.22,2.73,0.73l0,0c0.55,0.96,0.22,2.18-0.73,2.73L63.5,94.58
		z"/>
	<path class="st0" d="M61.5,94.58L35.39,79.51c-0.96-0.55-1.28-1.78-0.73-2.73h0c0.55-0.96,1.78-1.28,2.73-0.73L63.5,91.12
		L61.5,94.58z"/>
</g>
<g>
	<g>
		<path class="st0" d="M40.23,59.77c-6.06-8.72-7.26-17.59-3.4-24.98c4.29-8.2,14.36-13.5,25.67-13.5v7.75
			c-8.33,0-15.88,3.75-18.8,9.34c-2.5,4.78-1.5,10.65,2.9,16.97L40.23,59.77z"/>
		<path class="st0" d="M84.77,59.77c6.06-8.72,7.26-17.59,3.4-24.98c-4.29-8.2-14.36-13.5-25.67-13.5v7.75
			c8.33,0,15.88,3.75,18.8,9.34c2.5,4.78,1.5,10.65-2.9,16.97L84.77,59.77z"/>
	</g>
	<circle class="st0" cx="62.5" cy="24.83" r="8.18"/>
</g>
<rect x="59" class="st0" width="7" height="26.28"/>
</svg>
