<?xml version="1.0" encoding="utf-8"?>
<!-- Generator: Adobe Illustrator 24.1.2, SVG Export Plug-In . SVG Version: 6.00 Build 0)  -->
<svg version="1.1" id="_x32_" xmlns="http://www.w3.org/2000/svg" xmlns:xlink="http://www.w3.org/1999/xlink" x="0px" y="0px"
	 viewBox="0 0 708.7 708.7" style="enable-background:new 0 0 708.7 708.7;" xml:space="preserve">
<style type="text/css">
	.st0{fill:#546E7A;}
	.st1{fill:#546E7A;stroke:#546E7A;stroke-width:60;stroke-miterlimit:10;}
</style>
<g>
	<path class="st0" d="M530.6,275.9v152.4c0.1,22.2-6.9,48.7-21.6,68.4c-7.3,9.9-16.4,18.3-27.6,24.2c-11.2,5.9-24.6,9.5-40.9,9.5
		c-5.4,0-11.2-0.4-17.4-1.3c-15.5-2.2-25.2-7.2-30.7-12.2c-5.5-5.1-7.3-10.3-7.4-15.9c0-6.4,3.1-13.8,9.4-19.9
		c6.3-6,15.5-10.6,27.2-11.5c4-0.3,7.7-0.4,11.2-0.4c29.4,0.1,42.4,8.9,47.4,13.8c5,5,13.2,5,18.2,0c5-5,5-13.2,0-18.2
		c-10.3-10.4-30.9-21.4-65.6-21.4c-4.2,0-8.5,0.2-13.1,0.5c-17.5,1.2-32.5,8.3-43.2,18.6c-10.6,10.3-17.2,24-17.2,38.4
		c-0.1,12.5,5.3,25.3,15.7,34.8c10.4,9.6,25.3,16,44.5,18.8c7.3,1,14.3,1.5,21,1.5c20.2,0,38-4.6,53-12.5
		c22.5-11.9,38.3-30.9,48.3-51.6c10-20.8,14.6-43.3,14.6-63.8V275.9c0-7.1-5.8-12.9-12.9-12.9C536.4,263,530.6,268.8,530.6,275.9z"
		/>
	<path class="st0" d="M392.9,331.2c6.9,1.8,13.9-2.4,15.7-9.2L453.1,149c1.8-6.9-2.4-13.9-9.2-15.7c-6.9-1.8-13.9,2.4-15.7,9.2
		l-44.5,172.9C381.9,322.4,386,329.4,392.9,331.2z"/>
	<path class="st0" d="M438.3,341.3c6.9,1.8,13.9-2.4,15.7-9.2l40.9-158.8c1.8-6.9-2.4-13.9-9.2-15.7c-6.9-1.8-13.9,2.4-15.7,9.2
		L429,325.7C427.2,332.5,431.4,339.6,438.3,341.3z"/>
	<path class="st0" d="M485.3,355.7c6.9,1.8,13.9-2.4,15.7-9.2l39-151.3c1.8-6.9-2.4-13.9-9.2-15.7c-6.9-1.8-13.9,2.4-15.7,9.2
		l-39,151.3C474.3,346.9,478.5,353.9,485.3,355.7z"/>
	<path class="st0" d="M336.4,286c9.8,3.7,22.6,7.5,36,11.1l9-35.1l-22.8-9c-8.6-3.4-10.9-9.4-8.3-16.2c2.4-6.2,7.3-11.3,16.1-8.2
		l21.4,8.4l7.7-29.8l-17.9-7.1c-7.9-2.9-8.6-10.8-6.2-17c2.7-6.8,8.5-9.5,17.1-6.2l13.5,5.3l9.5-36.9c-6-2.9-11.7-5.6-16.8-7.7
		c-34.3-14.1-69.8-3.3-88.5,6.2c-10.5,5.3-21.3,11.4-33.2,6.7L125.6,91.2v54.1l130.6,48.3c11.9,4.7,15.7,16.5,19.7,27.5
		C283.1,240.8,301.7,273,336.4,286z"/>
	<path class="st0" d="M554.6,519.1c-4.3-5.1-11.8-5.7-16.9-1.5c-5.1,4.3-5.7,11.8-1.5,16.9c1.6,2,2.2,3.7,2.3,6.1
		c0,2.9-1.3,7.3-5,12.3c-5.6,7.5-16.5,16.1-32.6,22.5c-16.1,6.4-37.3,10.9-63.3,10.9c-42.3,0-69.9-8.9-88-20.4
		c-18-11.5-26.9-25.6-31.2-38c-2.2-6.3-9-9.6-15.3-7.5c-6.3,2.2-9.6,9-7.5,15.3c5.8,16.9,18.2,36.1,41,50.5
		c22.7,14.5,55.3,24.1,100.8,24.1c38.3,0,68.5-8.6,89.9-21.2c10.7-6.3,19.2-13.7,25.3-21.8c6-8.1,9.7-17.2,9.8-26.6
		C562.5,532.9,559.8,525.1,554.6,519.1z"/>
</g>
<g>
	<path class="st0" d="M354.3,61.8c39.8,0,78.3,7.8,114.5,23.1c35,14.8,66.5,36.1,93.6,63.1c27,27.1,48.3,58.5,63.1,93.6
		c15.3,36.2,23.1,74.8,23.1,114.5s-7.8,78.3-23.1,114.5c-14.8,35-36.1,66.5-63.1,93.6c-27.1,27-58.5,48.3-93.6,63.1
		c-36.2,15.3-74.8,23.1-114.5,23.1s-78.3-7.8-114.5-23.1c-35-14.8-66.5-36.1-93.6-63.1c-27.1-27.1-48.3-58.5-63.1-93.6
		C67.8,434.4,60,395.9,60,356.1s7.8-78.3,23.1-114.5c14.8-35,36.1-66.5,63.1-93.6c27.1-27.1,58.5-48.3,93.6-63.1
		C276,69.6,314.6,61.8,354.3,61.8 M354.3,1.8C158.6,1.8,0,160.4,0,356.1s158.6,354.3,354.3,354.3s354.3-158.6,354.3-354.3
		S550,1.8,354.3,1.8L354.3,1.8z"/>
</g>
<line class="st1" x1="126.6" y1="582.1" x2="582.1" y2="126.6"/>
</svg>
