<?xml version="1.0" encoding="utf-8"?>
<!-- Generator: Adobe Illustrator 24.1.2, SVG Export Plug-In . SVG Version: 6.00 Build 0)  -->
<svg version="1.1"
	 id="レイヤー_1" shape-rendering="geometricPrecision" text-rendering="geometricPrecision" image-rendering="optimizeQuality"
	 xmlns="http://www.w3.org/2000/svg" xmlns:xlink="http://www.w3.org/1999/xlink" x="0px" y="0px" viewBox="0 0 100 100"
	 style="enable-background:new 0 0 100 100;" xml:space="preserve">
<style type="text/css">
	.st0{fill-rule:evenodd;clip-rule:evenodd;fill:#B900B4;}
</style>
<path class="st0" d="M50,0c27.59,0,50,22.38,50,50c0,27.59-22.38,50-50,50C22.41,100,0,77.62,0,50C0,22.41,22.38,0,50,0z
	 M38.3,22.56h23.4c8.79,0,15.96,7.11,15.96,15.75v23.34c0,8.67-7.17,15.75-15.96,15.75H38.3c-8.79,0-15.96-7.08-15.96-15.75V38.3
	C22.35,29.63,29.54,22.56,38.3,22.56z M49.85,35.18c8.55,0,15.48,6.93,15.48,15.48S58.4,66.14,49.85,66.14s-15.48-6.93-15.48-15.48
	S41.3,35.18,49.85,35.18z M49.85,40.4c5.64,0,10.23,4.59,10.23,10.23s-4.59,10.23-10.23,10.23c-5.67,0-10.23-4.59-10.23-10.23
	S44.21,40.4,49.85,40.4z M64.82,33.02c1.38,0,2.52,1.11,2.52,2.52c0,1.38-1.11,2.52-2.52,2.52c-1.38,0-2.52-1.11-2.52-2.52
	C62.3,34.16,63.41,33.02,64.82,33.02z M40.22,27.02h19.56c7.35,0,13.35,5.97,13.35,13.29v19.68c0,7.32-6,13.29-13.35,13.29H40.22
	c-7.35,0-13.35-5.97-13.35-13.29V40.31C26.87,32.99,32.87,27.02,40.22,27.02z"/>
</svg>
