<?xml version="1.0" encoding="utf-8"?>
<!-- Generator: Adobe Illustrator 24.1.2, SVG Export Plug-In . SVG Version: 6.00 Build 0)  -->
<svg version="1.1" id="_x32_" xmlns="http://www.w3.org/2000/svg" xmlns:xlink="http://www.w3.org/1999/xlink" x="0px" y="0px"
	 viewBox="0 0 125 125" style="enable-background:new 0 0 125 125;" xml:space="preserve">
<style type="text/css">
	.st0{fill:#546E7A;}
</style>
<g>
	<rect x="36.6" y="77.8" class="st0" width="21.1" height="31"/>
	<rect x="66.1" y="60.1" class="st0" width="21.1" height="48.7"/>
	<rect x="7" y="91.5" class="st0" width="21.1" height="17.3"/>
	<path class="st0" d="M124.8,32.1L107.5,0.8c-0.3-0.5-0.8-0.8-1.3-0.8c-0.5,0-1,0.3-1.3,0.8L87.5,32.1c-0.3,0.5-0.3,1.1,0,1.6
		c0.3,0.5,0.8,0.8,1.3,0.8h6.8v74.3h21.1V34.4h6.8c0.5,0,1-0.3,1.3-0.8C125.1,33.2,125.1,32.6,124.8,32.1z"/>
	<rect y="114.7" class="st0" width="125" height="10.3"/>
</g>
</svg>
