<?xml version="1.0" encoding="utf-8"?>
<!-- Generator: Adobe Illustrator 24.1.2, SVG Export Plug-In . SVG Version: 6.00 Build 0)  -->
<svg version="1.1" id="Layer_1" xmlns="http://www.w3.org/2000/svg" xmlns:xlink="http://www.w3.org/1999/xlink" x="0px" y="0px"
	 viewBox="0 0 100 100" style="enable-background:new 0 0 100 100;" xml:space="preserve">
<style type="text/css">
	.st0{fill:#F05133;}
	.st1{fill:#FFFFFF;}
</style>
<circle class="st0" cx="50" cy="50" r="50"/>
<g>
	<path class="st1" d="M80,47.22L52.78,20c-1.56-1.56-4.1-1.56-5.69,0l-5.66,5.66l7.17,7.17c1.66-0.57,3.58-0.18,4.91,1.14
		c1.32,1.32,1.71,3.27,1.14,4.94l6.91,6.91c1.66-0.57,3.61-0.21,4.94,1.14c1.87,1.87,1.87,4.88,0,6.75c-1.87,1.87-4.88,1.87-6.75,0
		c-1.4-1.4-1.74-3.45-1.04-5.19l-6.44-6.44v16.96c0.44,0.23,0.88,0.52,1.27,0.91c1.87,1.87,1.87,4.88,0,6.75
		c-1.87,1.87-4.88,1.87-6.75,0c-1.87-1.87-1.87-4.88,0-6.75c0.47-0.47,0.99-0.81,1.56-1.04V41.79c-0.57-0.23-1.09-0.57-1.56-1.04
		c-1.4-1.4-1.74-3.48-1.04-5.22l-7.06-7.06L20,47.12c-1.56,1.56-1.56,4.1,0,5.69L47.22,80c1.56,1.56,4.1,1.56,5.69,0L80,52.91
		C81.56,51.32,81.56,48.78,80,47.22z"/>
</g>
</svg>
