<svg xmlns="http://www.w3.org/2000/svg" viewBox="0 0 100 100"><path d="M50 0C22.39 0 0 22.39 0 50s22.39 50 50 50 50-22.39 50-50S77.61 0 50 0zm.96 42.46h.05c-.17-.73-.26-1.5-.26-2.28 0-5.53 4.48-10.01 10.01-10.01 2.88 0 5.48 1.22 7.31 3.16 1.88-.37 3.65-1.01 5.3-1.86.35-.17.7-.34 1.04-.52-.59 1.82-1.71 3.4-3.15 4.6-.39.31-.79.61-1.24.85.03 0 .06-.01.09-.01-.03.02-.05.04-.08.06 1.64-.2 3.21-.6 4.71-1.16.33-.12.67-.23 1-.36a20.495 20.495 0 01-4.96 5.13c.02.43.03.86.03 1.3 0 13.23-10.07 28.48-28.49 28.48-5.65 0-10.92-1.66-15.35-4.5.78.09 1.58.14 2.39.14 3.74 0 7.23-1.03 10.23-2.8.76-.44 1.5-.91 2.2-1.44-.02 0-.04-.01-.06-.01.02-.01.04-.03.06-.04-3.79-.07-7.07-2.25-8.71-5.42-.24-.49-.45-1-.62-1.53.6.11 1.22.18 1.86.18.66 0 1.3-.09 1.93-.21.23-.03.47-.06.7-.1l-.09-.03c.03-.01.07-.01.1-.02-4.58-.92-8.03-4.97-8.03-9.82v-.12c1.08.6 2.28.99 3.56 1.16.31.05.63.1.94.13a.265.265 0 01-.06-.05c.03 0 .06.01.09.01a10 10 0 01-4.45-8.33c0-1.59.39-3.08 1.05-4.42.11-.2.2-.41.32-.6a28.49 28.49 0 0018.13 10.19c.81.12 1.63.22 2.45.27v-.02z" fill="#00acee"/></svg>