<svg version="1.1" id="_x32_" xmlns="http://www.w3.org/2000/svg" x="0" y="0" viewBox="0 0 708.7 708.7" xml:space="preserve"><style>.st0{fill:#546e7a}</style><path class="st0" d="M530.6 275.9v152.4c.1 22.2-6.9 48.7-21.6 68.4-7.3 9.9-16.4 18.3-27.6 24.2-11.2 5.9-24.6 9.5-40.9 9.5-5.4 0-11.2-.4-17.4-1.3-15.5-2.2-25.2-7.2-30.7-12.2-5.5-5.1-7.3-10.3-7.4-15.9 0-6.4 3.1-13.8 9.4-19.9 6.3-6 15.5-10.6 27.2-11.5 4-.3 7.7-.4 11.2-.4 29.4.1 42.4 8.9 47.4 13.8 5 5 13.2 5 18.2 0s5-13.2 0-18.2c-10.3-10.4-30.9-21.4-65.6-21.4-4.2 0-8.5.2-13.1.5-17.5 1.2-32.5 8.3-43.2 18.6-10.6 10.3-17.2 24-17.2 38.4-.1 12.5 5.3 25.3 15.7 34.8 10.4 9.6 25.3 16 44.5 18.8 7.3 1 14.3 1.5 21 1.5 20.2 0 38-4.6 53-12.5 22.5-11.9 38.3-30.9 48.3-51.6 10-20.8 14.6-43.3 14.6-63.8V275.9c0-7.1-5.8-12.9-12.9-12.9-7.1 0-12.9 5.8-12.9 12.9zm-137.7 55.3c6.9 1.8 13.9-2.4 15.7-9.2l44.5-173c1.8-6.9-2.4-13.9-9.2-15.7-6.9-1.8-13.9 2.4-15.7 9.2l-44.5 172.9c-1.8 7 2.3 14 9.2 15.8zm45.4 10.1c6.9 1.8 13.9-2.4 15.7-9.2l40.9-158.8c1.8-6.9-2.4-13.9-9.2-15.7-6.9-1.8-13.9 2.4-15.7 9.2l-41 158.9c-1.8 6.8 2.4 13.9 9.3 15.6z"/><path class="st0" d="M485.3 355.7c6.9 1.8 13.9-2.4 15.7-9.2l39-151.3c1.8-6.9-2.4-13.9-9.2-15.7-6.9-1.8-13.9 2.4-15.7 9.2l-39 151.3c-1.8 6.9 2.4 13.9 9.2 15.7zM336.4 286c9.8 3.7 22.6 7.5 36 11.1l9-35.1-22.8-9c-8.6-3.4-10.9-9.4-8.3-16.2 2.4-6.2 7.3-11.3 16.1-8.2l21.4 8.4 7.7-29.8-17.9-7.1c-7.9-2.9-8.6-10.8-6.2-17 2.7-6.8 8.5-9.5 17.1-6.2l13.5 5.3 9.5-36.9c-6-2.9-11.7-5.6-16.8-7.7-34.3-14.1-69.8-3.3-88.5 6.2-10.5 5.3-21.3 11.4-33.2 6.7L125.6 91.2v54.1l130.6 48.3c11.9 4.7 15.7 16.5 19.7 27.5 7.2 19.7 25.8 51.9 60.5 64.9zm218.2 233.1c-4.3-5.1-11.8-5.7-16.9-1.5-5.1 4.3-5.7 11.8-1.5 16.9 1.6 2 2.2 3.7 2.3 6.1 0 2.9-1.3 7.3-5 12.3-5.6 7.5-16.5 16.1-32.6 22.5-16.1 6.4-37.3 10.9-63.3 10.9-42.3 0-69.9-8.9-88-20.4-18-11.5-26.9-25.6-31.2-38-2.2-6.3-9-9.6-15.3-7.5-6.3 2.2-9.6 9-7.5 15.3 5.8 16.9 18.2 36.1 41 50.5 22.7 14.5 55.3 24.1 100.8 24.1 38.3 0 68.5-8.6 89.9-21.2 10.7-6.3 19.2-13.7 25.3-21.8 6-8.1 9.7-17.2 9.8-26.6.1-7.8-2.6-15.6-7.8-21.6z"/><path class="st0" d="M354.3 61.8c39.8 0 78.3 7.8 114.5 23.1 35 14.8 66.5 36.1 93.6 63.1 27 27.1 48.3 58.5 63.1 93.6 15.3 36.2 23.1 74.8 23.1 114.5s-7.8 78.3-23.1 114.5c-14.8 35-36.1 66.5-63.1 93.6-27.1 27-58.5 48.3-93.6 63.1-36.2 15.3-74.8 23.1-114.5 23.1s-78.3-7.8-114.5-23.1c-35-14.8-66.5-36.1-93.6-63.1-27.1-27.1-48.3-58.5-63.1-93.6C67.8 434.4 60 395.9 60 356.1s7.8-78.3 23.1-114.5c14.8-35 36.1-66.5 63.1-93.6 27.1-27.1 58.5-48.3 93.6-63.1 36.2-15.3 74.8-23.1 114.5-23.1m0-60C158.6 1.8 0 160.4 0 356.1s158.6 354.3 354.3 354.3 354.3-158.6 354.3-354.3S550 1.8 354.3 1.8z"/><path fill="#546e7a" stroke="#546e7a" stroke-width="60" stroke-miterlimit="10" d="M126.6 582.1l455.5-455.5"/></svg>