<svg version="1.1" id="レイヤー_1" xmlns="http://www.w3.org/2000/svg" x="0" y="0" viewBox="0 0 125 125" xml:space="preserve"><style>.st0{fill:#526c78}</style><path class="st0" d="M62.5 64.7c.35 0 .7.09 1 .27l22.65 13.07c.62.36 1 1.02 1 1.73v26.15c0 .71-.38 1.38-1 1.73L63.5 120.73c-.3.18-.65.27-1 .27s-.7-.09-1-.27l-22.65-13.07c-.62-.36-1-1.02-1-1.73V79.78c0-.71.38-1.38 1-1.73L61.5 64.97c.3-.18.65-.27 1-.27m0-4c-1.04 0-2.07.27-3 .8L36.85 74.58c-1.86 1.07-3 3.05-3 5.2v26.15c0 2.14 1.14 4.12 3 5.2L59.5 124.2c.93.54 1.96.8 3 .8s2.07-.27 3-.8l22.65-13.07c1.86-1.07 3-3.05 3-5.2V79.78c0-2.14-1.14-4.12-3-5.2L65.5 61.5c-.93-.53-1.96-.8-3-.8z"/><path class="st0" d="M62.5 125c-1.1 0-2-.9-2-2V92.85h4V123c0 1.1-.9 2-2 2z"/><path class="st0" d="M63.5 94.58l-2-3.46 26.11-15.07c.96-.55 2.18-.22 2.73.73.55.96.22 2.18-.73 2.73L63.5 94.58z"/><path class="st0" d="M61.5 94.58L35.39 79.51a1.997 1.997 0 01-.73-2.73c.55-.96 1.78-1.28 2.73-.73L63.5 91.12l-2 3.46zM40.23 59.77c-6.06-8.72-7.26-17.59-3.4-24.98 4.29-8.2 14.36-13.5 25.67-13.5v7.75c-8.33 0-15.88 3.75-18.8 9.34-2.5 4.78-1.5 10.65 2.9 16.97l-6.37 4.42zm44.54 0c6.06-8.72 7.26-17.59 3.4-24.98-4.29-8.2-14.36-13.5-25.67-13.5v7.75c8.33 0 15.88 3.75 18.8 9.34 2.5 4.78 1.5 10.65-2.9 16.97l6.37 4.42z"/><circle class="st0" cx="62.5" cy="24.83" r="8.18"/><path class="st0" d="M59 0h7v26.28h-7z"/></svg>